<svg width="190" height="134" viewBox="0 0 190 134" fill="none" xmlns="http://www.w3.org/2000/svg">
<path d="M72.5 0.062572C70.0147 0.062572 68 2.07729 68 4.56257C68 7.04785 70.0147 9.06257 72.5 9.06257V4.56257V0.062572ZM109.22 4.56257V9.06257H109.486L109.75 9.03129L109.22 4.56257ZM117.028 34.4636L121.044 36.494L121.044 36.494L117.028 34.4636ZM95.1831 34.6982L98.9841 32.2893L98.9841 32.2893L95.1831 34.6982ZM84.3881 26.0556C84.3881 23.5703 82.3733 21.5556 79.8881 21.5556C77.4028 21.5556 75.3881 23.5703 75.3881 26.0556H79.8881H84.3881ZM107.911 54.8737L106.865 50.4967V50.4967L107.911 54.8737ZM111.157 58.725C113.574 58.1477 115.066 55.7201 114.489 53.3028C113.912 50.8855 111.484 49.3938 109.067 49.9711L110.112 54.348L111.157 58.725ZM96.8974 54.8163L97.7685 50.4014H97.7685L96.8974 54.8163ZM98.1669 55.0667L97.2958 59.4816H97.2958L98.1669 55.0667ZM80.1748 37.549L84.614 36.8114L84.614 36.8114L80.1748 37.549ZM72.5 4.56257V9.06257H109.22V4.56257V0.062572H72.5V4.56257ZM109.22 4.56257L109.75 9.03129C110.084 8.99162 110.574 8.98052 111.099 9.04864C111.627 9.11719 112.057 9.24841 112.359 9.40173C112.64 9.54412 112.749 9.671 112.801 9.75347C112.844 9.82027 113 10.086 113 10.7783H117.5H122C122 8.59176 121.466 6.60016 120.387 4.91061C119.319 3.23673 117.875 2.10821 116.431 1.37549C113.674 -0.0232348 110.639 -0.137127 108.69 0.093854L109.22 4.56257ZM117.5 10.7783H113V32.1434H117.5H122V10.7783H117.5ZM117.028 34.4636L113.012 32.4332C112.188 34.0634 110.136 36.3755 106.34 36.3755V40.8755V45.3755C114.535 45.3755 119.201 40.1393 121.044 36.494L117.028 34.4636ZM106.34 40.8755V36.3755C102.556 36.3755 100.125 34.0894 98.9841 32.2893L95.1831 34.6982L91.3821 37.107C93.5634 40.549 98.4842 45.3755 106.34 45.3755V40.8755ZM94.46 31.8194H98.96V6.5204H94.46H89.96V31.8194H94.46ZM95.1831 34.6982L98.9841 32.2893C99.0264 32.3561 99.0197 32.3751 99.0019 32.2985C98.9827 32.216 98.96 32.0618 98.96 31.8194H94.46H89.96C89.96 33.3149 90.2216 35.2758 91.3821 37.107L95.1831 34.6982ZM117.5 32.1434H113C113 32.3458 112.985 32.4603 112.976 32.5118C112.967 32.558 112.969 32.5189 113.012 32.4332L117.028 34.4636L121.044 36.494C121.848 34.9035 122 33.3115 122 32.1434H117.5ZM79.8881 26.0556H75.3881V34.0736H79.8881H84.3881V26.0556H79.8881ZM107.911 54.8737L108.956 59.2506L111.157 58.725L110.112 54.348L109.067 49.9711L106.865 50.4967L107.911 54.8737ZM96.8974 54.8163L96.0263 59.2311L97.2958 59.4816L98.1669 55.0667L99.0379 50.6518L97.7685 50.4014L96.8974 54.8163ZM80.1748 37.549L75.7357 38.2867C77.4855 48.8167 85.564 57.1669 96.0263 59.2311L96.8974 54.8163L97.7685 50.4014C90.9983 49.0656 85.7515 43.6565 84.614 36.8114L80.1748 37.549ZM107.911 54.8737L106.865 50.4967C104.297 51.11 101.628 51.1629 99.0379 50.6518L98.1669 55.0667L97.2958 59.4816C101.154 60.2429 105.131 60.1641 108.956 59.2506L107.911 54.8737ZM79.8881 34.0736H75.3881C75.3881 35.4852 75.5043 36.8943 75.7357 38.2867L80.1748 37.549L84.614 36.8114C84.4636 35.9066 84.3881 34.9909 84.3881 34.0736H79.8881Z" fill="#19D660"/>
<path d="M1.66903 94.2761V88.3177H29.7422V94.2761H19.2773V122.5H12.1339V94.2761H1.66903ZM42.1974 123C39.5603 123 37.2904 122.466 35.3877 121.398C33.4961 120.319 32.0385 118.794 31.0148 116.825C29.9912 114.844 29.4793 112.502 29.4793 109.798C29.4793 107.161 29.9912 104.847 31.0148 102.855C32.0385 100.863 33.4794 99.3111 35.3376 98.1984C37.2069 97.0857 39.3989 96.5293 41.9136 96.5293C43.6049 96.5293 45.1794 96.802 46.637 97.3472C48.1057 97.8813 49.3853 98.688 50.4758 99.7673C51.5773 100.847 52.4341 102.204 53.0461 103.84C53.6581 105.464 53.964 107.367 53.964 109.548V111.501H32.3167V107.094H47.2712C47.2712 106.071 47.0487 105.164 46.6036 104.374C46.1585 103.584 45.541 102.966 44.751 102.521C43.9721 102.065 43.0653 101.837 42.0305 101.837C40.9511 101.837 39.9942 102.087 39.1597 102.588C38.3363 103.078 37.691 103.74 37.2236 104.574C36.7563 105.397 36.5171 106.315 36.5059 107.328V111.517C36.5059 112.786 36.7396 113.882 37.2069 114.805C37.6854 115.729 38.3586 116.441 39.2265 116.942C40.0944 117.442 41.1236 117.693 42.3142 117.693C43.1042 117.693 43.8274 117.581 44.4839 117.359C45.1404 117.136 45.7023 116.803 46.1697 116.357C46.637 115.912 46.993 115.367 47.2378 114.722L53.8138 115.156C53.48 116.736 52.7957 118.116 51.7609 119.295C50.7372 120.463 49.4131 121.376 47.7886 122.032C46.1752 122.678 44.3115 123 42.1974 123ZM65.9143 122.984C64.2787 122.984 62.8211 122.7 61.5415 122.132C60.2619 121.554 59.2493 120.703 58.5038 119.579C57.7694 118.444 57.4023 117.031 57.4023 115.339C57.4023 113.915 57.6637 112.719 58.1867 111.751C58.7097 110.783 59.4218 110.004 60.3231 109.414C61.2243 108.825 62.248 108.379 63.3941 108.079C64.5513 107.779 65.7641 107.567 67.0326 107.445C68.5236 107.289 69.7253 107.144 70.6377 107.011C71.5501 106.866 72.2122 106.655 72.6238 106.377C73.0355 106.098 73.2414 105.687 73.2414 105.142V105.041C73.2414 103.984 72.9076 103.167 72.24 102.588C71.5835 102.009 70.6488 101.72 69.436 101.72C68.1564 101.72 67.1383 102.004 66.3817 102.571C65.625 103.128 65.1243 103.829 64.8795 104.674L58.3035 104.14C58.6373 102.582 59.2938 101.236 60.273 100.101C61.2522 98.955 62.5151 98.076 64.0617 97.464C65.6195 96.8409 67.422 96.5293 69.4694 96.5293C70.8936 96.5293 72.2567 96.6962 73.5585 97.0301C74.8715 97.3639 76.0342 97.8813 77.0468 98.5823C78.0705 99.2832 78.8772 100.185 79.4669 101.286C80.0566 102.377 80.3515 103.684 80.3515 105.208V122.5H73.6086V118.944H73.4083C72.9966 119.746 72.4458 120.452 71.7559 121.064C71.0661 121.665 70.2371 122.138 69.2691 122.483C68.301 122.817 67.1828 122.984 65.9143 122.984ZM67.9506 118.077C68.9965 118.077 69.92 117.871 70.7211 117.459C71.5223 117.036 72.151 116.469 72.6072 115.757C73.0634 115.044 73.2915 114.238 73.2915 113.337V110.616C73.0689 110.761 72.7629 110.894 72.3735 111.017C71.9952 111.128 71.5668 111.234 71.0883 111.334C70.6099 111.423 70.1314 111.506 69.653 111.584C69.1745 111.651 68.7406 111.712 68.3511 111.768C67.5166 111.89 66.7878 112.085 66.1647 112.352C65.5416 112.619 65.0576 112.98 64.7126 113.437C64.3677 113.882 64.1952 114.438 64.1952 115.106C64.1952 116.074 64.5457 116.814 65.2467 117.326C65.9588 117.826 66.8601 118.077 67.9506 118.077ZM85.8676 122.5V96.8631H92.6439V101.386H92.9443C93.4784 99.8841 94.3686 98.6991 95.6148 97.8312C96.861 96.9633 98.352 96.5293 100.088 96.5293C101.846 96.5293 103.342 96.9689 104.578 97.8479C105.813 98.7158 106.636 99.8952 107.048 101.386H107.315C107.838 99.9175 108.783 98.7436 110.152 97.8646C111.532 96.9744 113.162 96.5293 115.042 96.5293C117.435 96.5293 119.376 97.2915 120.867 98.8159C122.369 100.329 123.12 102.477 123.12 105.258V122.5H116.027V106.66C116.027 105.236 115.649 104.168 114.892 103.456C114.136 102.744 113.19 102.388 112.055 102.388C110.764 102.388 109.757 102.799 109.034 103.623C108.311 104.435 107.949 105.509 107.949 106.844V122.5H101.056V106.51C101.056 105.253 100.694 104.251 99.971 103.506C99.2588 102.76 98.3186 102.388 97.1503 102.388C96.3603 102.388 95.6482 102.588 95.0139 102.989C94.3908 103.378 93.8957 103.929 93.5285 104.641C93.1613 105.342 92.9777 106.165 92.9777 107.111V122.5H85.8676ZM149.984 88.3177H157.21V110.516C157.21 113.008 156.615 115.189 155.425 117.058C154.245 118.928 152.593 120.385 150.468 121.431C148.342 122.466 145.867 122.984 143.04 122.984C140.203 122.984 137.722 122.466 135.597 121.431C133.471 120.385 131.819 118.928 130.639 117.058C129.46 115.189 128.87 113.008 128.87 110.516V88.3177H136.097V109.898C136.097 111.2 136.381 112.357 136.948 113.37C137.527 114.382 138.339 115.178 139.385 115.757C140.431 116.335 141.65 116.625 143.04 116.625C144.442 116.625 145.661 116.335 146.696 115.757C147.742 115.178 148.548 114.382 149.116 113.37C149.694 112.357 149.984 111.2 149.984 109.898V88.3177ZM163.023 132.113V96.8631H170.033V101.169H170.35C170.662 100.479 171.112 99.7784 171.702 99.0663C172.303 98.343 173.082 97.7422 174.039 97.2637C175.007 96.7741 176.208 96.5293 177.644 96.5293C179.513 96.5293 181.238 97.0189 182.818 97.9981C184.398 98.9661 185.661 100.429 186.606 102.388C187.552 104.335 188.025 106.777 188.025 109.715C188.025 112.574 187.563 114.989 186.64 116.958C185.727 118.917 184.481 120.402 182.901 121.415C181.332 122.416 179.574 122.917 177.627 122.917C176.247 122.917 175.073 122.689 174.105 122.232C173.148 121.776 172.364 121.203 171.752 120.513C171.14 119.812 170.673 119.106 170.35 118.394H170.133V132.113H163.023ZM169.983 109.681C169.983 111.206 170.194 112.535 170.617 113.67C171.04 114.805 171.652 115.69 172.453 116.324C173.254 116.947 174.228 117.259 175.374 117.259C176.531 117.259 177.51 116.942 178.311 116.307C179.112 115.662 179.719 114.772 180.131 113.637C180.553 112.491 180.765 111.172 180.765 109.681C180.765 108.201 180.559 106.9 180.147 105.776C179.736 104.652 179.129 103.773 178.328 103.139C177.527 102.504 176.542 102.187 175.374 102.187C174.217 102.187 173.237 102.493 172.436 103.105C171.646 103.717 171.04 104.585 170.617 105.709C170.194 106.833 169.983 108.157 169.983 109.681Z" fill="#19D660"/>
</svg>
